<?xml version="1.0" encoding="UTF-8" standalone="no" ?>
<!DOCTYPE svg PUBLIC "-//W3C//DTD SVG 1.1//EN" "http://www.w3.org/Graphics/SVG/1.1/DTD/svg11.dtd">
<svg xmlns="http://www.w3.org/2000/svg" xmlns:xlink="http://www.w3.org/1999/xlink" version="1.1" width="1280" height="1024" viewBox="0 0 1280 1024" xml:space="preserve">
<desc>Created with Fabric.js 5.3.0</desc>
<defs>
</defs>
<g transform="matrix(1 0 0 1 640 512)" id="background-logo"  >
<rect style="stroke: none; stroke-width: 0; stroke-dasharray: none; stroke-linecap: butt; stroke-dashoffset: 0; stroke-linejoin: miter; stroke-miterlimit: 4; fill: rgb(255,255,255); fill-opacity: 0; fill-rule: nonzero; opacity: 1;"  paint-order="stroke"  x="-640" y="-512" rx="0" ry="0" width="1280" height="1024" />
</g>
<g transform="matrix(1.9211538461538462 0 0 1.9211538461538462 634.2743447433595 74.61525472701857)" id="text-logo"  >
<g style=""  paint-order="stroke"   >
		<g transform="matrix(1 0 0 1 0 -7.10543e-15)" id="text-logo-path-0"  >
<path style="stroke: none; stroke-width: 0; stroke-dasharray: none; stroke-linecap: butt; stroke-dashoffset: 0; stroke-linejoin: miter; stroke-miterlimit: 4; fill: rgb(66,115,185); fill-rule: nonzero; opacity: 1;"  paint-order="stroke"  transform=" translate(-129.825, 23.19)" d="M 12.4 -33.97 L 12.61 -33.97 L 21.78 -35.62 L 34.19 -37.79 L 34.19 -38.69 C 34.19 -42.93 30.74 -46.38 26.5 -46.38 L 7.68 -46.38 C 3.44 -46.38 0 -42.93 0 -38.69 L 0 -13.89 L 12.4 -16.06 L 21.84 -17.7 L 21.84 -12.35 L 12.4 -10.71 L 0 -8.53 L 0 0 L 34.19 0 L 34.19 -32.49 L 21.78 -30.32 L 12.4 -28.67 Z M 74.15 -46.38 L 64.34 -46.38 L 51.94 -46.38 L 41.02 -46.38 L 41.02 -40.55 L 41.02 -33.97 L 41.02 -27.93 L 51.94 -29.84 L 51.94 0.05 L 64.34 0.05 L 64.34 -32.01 L 75.21 -33.92 L 75.21 -33.92 L 75.21 -33.92 L 75.21 -46.32 L 74.09 -46.32 Z M 116.33 -18.5 L 103.93 -16.32 L 103.93 -12.4 L 94.5 -12.4 L 94.5 -46.38 L 82.1 -46.38 L 82.1 0 L 116.28 0 L 116.28 -18.5 Z M 145.01 -14.84 L 135.57 -12.61 L 135.57 -31.59 L 145.01 -33.81 Z M 123.22 -38.74 L 123.22 0 L 157.41 0 L 157.41 -38.74 C 157.41 -42.98 153.97 -46.43 149.72 -46.43 L 130.8 -46.43 C 126.56 -46.43 123.12 -42.98 123.12 -38.74 Z M 174.85 -33.97 L 196.63 -33.97 L 196.63 -38.69 C 196.63 -42.93 193.19 -46.38 188.94 -46.38 L 170.13 -46.38 C 165.89 -46.38 162.44 -42.93 162.44 -38.69 L 162.44 0 L 196.63 0 L 196.63 -30.32 L 177.23 -26.92 L 177.23 -15.53 L 184.23 -16.75 L 184.23 -12.4 L 174.79 -12.4 L 174.79 -33.97 Z M 214.07 -46.38 L 201.66 -46.38 L 201.66 0 L 214.07 0 Z M 259.65 -46.38 L 245.39 -46.38 L 239.35 -35.72 L 233.31 -46.38 L 219.05 -46.38 L 232.19 -23.16 L 219.05 0.05 L 233.31 0.05 L 239.35 -10.6 L 245.39 0.05 L 259.65 0.05 L 246.5 -23.11 L 259.65 -46.27 Z" stroke-linecap="round" />
</g>
</g>
</g>
<g transform="matrix(1.9211538461538462 0 0 1.9211538461538462 627.7100486320896 820.2146957560833)" id="tagline-7a62bffa-d1ed-4ee4-9892-7532c8b66db2-logo"  >
<g style=""  paint-order="stroke"   >
		<g transform="matrix(1 0 0 1 5.684342e-14 0)" id="tagline-7a62bffa-d1ed-4ee4-9892-7532c8b66db2-logo-path-0"  >
<path style="stroke: none; stroke-width: 0; stroke-dasharray: none; stroke-linecap: butt; stroke-dashoffset: 0; stroke-linejoin: miter; stroke-miterlimit: 4; fill: rgb(236,29,69); fill-rule: nonzero; opacity: 1;"  paint-order="stroke"  transform=" translate(-224.6, 12.235000000000001)" d="M 11.54 -17.44 L 11.51 -17.44 L 11.51 -14.81 L 11.51 -14.81 L 11.51 -14.81 L 6.55 -13.94 L 6.55 -17.98 L 11.54 -17.98 Z M 18.06 -14.84 L 18.06 -14.95 L 18.06 -17.42 L 18.06 -17.42 L 18.06 -20.44 C 18.06 -22.68 16.27 -24.47 14.03 -24.47 L 4.06 -24.47 C 1.82 -24.47 0 -22.68 0 -20.44 L 0 0.03 L 6.55 0.03 L 6.55 -7.25 L 11.51 -8.12 L 11.51 -8.12 L 11.51 -8.12 L 11.51 0.06 L 18.06 0.06 L 18.06 -9.27 L 18.06 -9.35 C 18 -10.86 16.74 -12.01 15.29 -12.01 C 15.12 -12.01 14.95 -12.01 14.78 -11.98 L 15.76 -12.15 C 17.05 -12.38 18 -13.47 18.06 -14.76 Z M 28.48 -17.95 L 39.98 -17.95 L 39.98 -20.47 C 39.98 -22.71 38.16 -24.53 35.92 -24.53 L 25.93 -24.53 C 23.69 -24.53 21.87 -22.71 21.87 -20.47 L 21.87 -0.03 L 39.93 -0.03 L 39.93 -6.55 L 28.42 -6.55 L 28.42 -8.4 L 35.64 -9.69 L 35.64 -16.32 L 28.42 -15.04 L 28.42 -17.95 Z M 49.42 -17.95 L 60.93 -17.95 L 60.93 -20.44 C 60.93 -22.68 59.11 -24.5 56.87 -24.5 L 46.93 -24.5 C 44.69 -24.5 42.87 -22.68 42.87 -20.44 L 42.87 0 L 60.93 0 L 60.93 -16.02 L 50.68 -14.22 L 50.68 -8.2 L 54.38 -8.85 L 54.38 -6.55 L 49.39 -6.55 L 49.39 -17.95 Z M 81.87 -20.44 C 81.87 -22.68 80.05 -24.5 77.81 -24.5 L 75.32 -24.5 L 75.32 -9.86 L 70.36 -8.68 L 70.36 -8.68 L 70.36 -24.5 L 67.9 -24.5 C 65.66 -24.5 63.84 -22.68 63.84 -20.44 L 63.84 0 L 81.9 0 L 81.9 -20.44 Z M 102.82 -9.77 L 96.26 -8.62 L 96.26 -6.55 L 91.28 -6.55 L 91.28 -24.5 L 84.73 -24.5 L 84.73 0 L 102.79 0 L 102.79 -9.77 Z M 117.24 -14.81 L 117.24 -14.81 L 112.28 -13.94 L 112.28 -17.98 L 117.26 -17.98 L 117.26 -14.81 Z M 119.76 -24.5 L 109.79 -24.5 C 107.55 -24.5 105.73 -22.71 105.73 -20.47 L 105.73 0 L 112.28 0 L 112.28 -7.28 L 117.24 -8.15 L 117.24 -8.15 L 117.24 0 L 123.76 0 L 123.76 -20.47 C 123.76 -22.71 121.97 -24.5 119.73 -24.5 Z M 144.12 -24.5 L 138.94 -24.5 L 132.38 -24.5 L 126.62 -24.5 L 126.62 -21.42 L 126.62 -17.95 L 126.62 -14.76 L 132.38 -15.76 L 132.38 0.03 L 138.94 0.03 L 138.94 -16.91 L 144.68 -17.92 L 144.68 -17.92 L 144.68 -17.92 L 144.68 -24.47 L 144.09 -24.47 Z M 159.1 -7.84 L 154.11 -6.66 L 154.11 -16.69 L 159.1 -17.86 Z M 147.59 -20.47 L 147.59 0 L 165.65 0 L 165.65 -20.47 C 165.65 -22.71 163.83 -24.53 161.59 -24.53 L 151.59 -24.53 C 149.35 -24.53 147.53 -22.71 147.53 -20.47 Z M 180.07 -17.44 L 180.04 -17.44 L 180.04 -14.81 L 180.04 -14.81 L 180.04 -14.81 L 175.08 -13.94 L 175.08 -17.98 L 180.07 -17.98 Z M 186.59 -14.84 L 186.59 -14.95 L 186.59 -17.42 L 186.59 -17.42 L 186.59 -20.44 C 186.59 -22.68 184.8 -24.47 182.56 -24.47 L 172.59 -24.47 C 170.35 -24.47 168.53 -22.68 168.53 -20.44 L 168.53 0.03 L 175.08 0.03 L 175.08 -7.25 L 180.04 -8.12 L 180.04 -8.12 L 180.04 -8.12 L 180.04 0.06 L 186.59 0.06 L 186.59 -9.27 L 186.59 -9.35 C 186.54 -10.86 185.28 -12.01 183.82 -12.01 C 183.65 -12.01 183.48 -12.01 183.32 -11.98 L 184.3 -12.15 C 185.58 -12.38 186.54 -13.47 186.59 -14.76 Z M 207.82 -24.5 L 200.62 -24.5 L 198.8 -20.5 L 196.98 -24.5 L 189.78 -24.5 L 195.19 -12.57 L 189.45 0 L 196.67 0 L 207.79 -24.5 Z M 238.31 -24.5 L 233.13 -24.5 L 226.58 -24.5 L 220.81 -24.5 L 220.81 -21.42 L 220.81 -17.95 L 220.81 -14.76 L 226.58 -15.76 L 226.58 0.03 L 233.13 0.03 L 233.13 -16.91 L 238.87 -17.92 L 238.87 -17.92 L 238.87 -17.92 L 238.87 -24.47 L 238.28 -24.47 Z M 249.31 -17.95 L 260.82 -17.95 L 260.82 -20.47 C 260.82 -22.71 259 -24.53 256.76 -24.53 L 246.76 -24.53 C 244.52 -24.53 242.7 -22.71 242.7 -20.47 L 242.7 -0.03 L 260.76 -0.03 L 260.76 -6.55 L 249.26 -6.55 L 249.26 -8.4 L 256.48 -9.69 L 256.48 -16.32 L 249.26 -15.04 L 249.26 -17.95 Z M 281.76 -20.44 C 281.76 -22.68 279.94 -24.5 277.7 -24.5 L 267.74 -24.5 C 265.5 -24.5 263.68 -22.68 263.68 -20.44 L 263.68 0 L 281.74 0 L 281.74 -10.47 L 275.18 -9.32 L 275.18 -6.58 L 270.2 -6.58 L 270.2 -17.98 L 275.18 -17.98 L 275.18 -15.99 L 281.74 -17.14 L 281.74 -20.47 Z M 302.71 -20.47 C 302.71 -22.71 300.89 -24.53 298.65 -24.53 L 296.16 -24.53 L 296.16 -16.13 L 291.17 -15.26 L 291.17 -24.53 L 288.68 -24.53 C 286.44 -24.53 284.62 -22.71 284.62 -20.47 L 284.62 0 L 291.17 0 L 291.17 -8.6 L 296.16 -9.46 L 296.16 0 L 302.71 0 Z M 333.79 -20.44 C 333.79 -22.68 331.97 -24.5 329.73 -24.5 L 319.76 -24.5 C 317.52 -24.5 315.7 -22.68 315.7 -20.44 L 315.7 0 L 333.76 0 L 333.76 -10.47 L 327.21 -9.32 L 327.21 -6.58 L 322.22 -6.58 L 322.22 -17.98 L 327.21 -17.98 L 327.21 -15.99 L 333.76 -17.14 L 333.76 -20.47 Z M 355.71 -9.77 L 349.16 -8.62 L 349.16 -6.55 L 344.18 -6.55 L 344.18 -24.5 L 337.62 -24.5 L 337.62 0 L 355.68 0 L 355.68 -9.77 Z M 370.13 -14.81 L 370.13 -14.81 L 365.18 -13.94 L 365.18 -17.98 L 370.16 -17.98 L 370.16 -14.81 Z M 372.65 -24.5 L 362.68 -24.5 C 360.44 -24.5 358.62 -22.71 358.62 -20.47 L 358.62 0 L 365.18 0 L 365.18 -7.28 L 370.13 -8.15 L 370.13 -8.15 L 370.13 0 L 376.66 0 L 376.66 -20.47 C 376.66 -22.71 374.86 -24.5 372.62 -24.5 Z M 391.08 -17.44 L 391.05 -17.44 L 391.05 -14.81 L 391.05 -14.81 L 391.05 -14.81 L 386.09 -13.94 L 386.09 -17.98 L 391.08 -17.98 Z M 397.6 -14.84 L 397.6 -14.95 L 397.6 -17.42 L 397.6 -17.42 L 397.6 -20.44 C 397.6 -22.68 395.81 -24.47 393.57 -24.47 L 383.6 -24.47 C 381.36 -24.47 379.54 -22.68 379.54 -20.44 L 379.54 0.03 L 386.09 0.03 L 386.09 -7.25 L 391.05 -8.12 L 391.05 -8.12 L 391.05 -8.12 L 391.05 0.06 L 397.6 0.06 L 397.6 -9.27 L 397.6 -9.35 C 397.54 -10.86 396.28 -12.01 394.83 -12.01 C 394.66 -12.01 394.49 -12.01 394.32 -11.98 L 395.3 -12.15 C 396.59 -12.38 397.54 -13.47 397.6 -14.76 Z M 407.04 -24.5 L 400.48 -24.5 L 400.48 0 L 407.04 0 Z M 427.39 -24.5 L 422.21 -24.5 L 415.66 -24.5 L 409.89 -24.5 L 409.89 -21.42 L 409.89 -17.95 L 409.89 -14.76 L 415.66 -15.76 L 415.66 0.03 L 422.21 0.03 L 422.21 -16.91 L 427.95 -17.92 L 427.95 -17.92 L 427.95 -17.92 L 427.95 -24.47 L 427.36 -24.47 Z M 449.2 -24.5 L 442.01 -24.5 L 440.19 -20.5 L 438.37 -24.5 L 431.17 -24.5 L 436.58 -12.57 L 430.84 0 L 438.06 0 L 449.18 -24.5 Z" stroke-linecap="round" />
</g>
</g>
</g>
<g transform="matrix(2.0174908128207454 0 0 2.0174908128207454 627.6122657992825 444.23401614224497)" id="logo-logo"  >
<g style=""  paint-order="stroke"   >
		<g transform="matrix(1.4394821947768692 0 0 -1.439482194776869 -25.224046499075087 -25.220447793588164)"  >
<path style="stroke: none; stroke-width: 1; stroke-dasharray: none; stroke-linecap: butt; stroke-dashoffset: 0; stroke-linejoin: miter; stroke-miterlimit: 4; fill: rgb(66,115,185); fill-rule: nonzero; opacity: 1;"  paint-order="stroke"  transform=" translate(-145.40900000000002, -146.01850000000002)" d="M 72.156 128.496 C 72.156 107.46700000000001 79.376 88.15700000000001 91.382 72.76500000000001 L 91.382 72.76500000000001 L 110.09100000000001 91.47900000000001 C 102.50900000000001 102.26100000000001 98.36300000000001 115.05900000000001 98.36300000000001 128.496 L 98.36300000000001 128.496 C 98.36300000000001 158.746 119.305 184.13400000000001 147.43 191.103 L 147.43 191.103 C 149.959 197.18300000000002 155.94 201.46 162.92600000000002 201.46 L 162.92600000000002 201.46 C 172.20100000000002 201.46 179.716 193.94400000000002 179.716 184.675 L 179.716 184.675 C 179.716 175.406 172.20100000000002 167.89000000000001 162.92600000000002 167.89000000000001 L 162.92600000000002 167.89000000000001 C 157.55100000000002 167.89000000000001 152.82100000000003 170.46200000000002 149.752 174.395 L 149.752 174.395 C 129.798 168.654 115.14200000000001 150.268 115.14200000000001 128.496 L 115.14200000000001 128.496 C 115.14200000000001 119.56500000000001 117.62800000000001 111.01700000000001 122.19400000000002 103.58300000000001 L 122.19400000000002 103.58300000000001 L 218.66200000000003 200.046 C 203.27000000000004 212.052 183.96100000000004 219.272 162.92600000000004 219.272 L 162.92600000000004 219.272 C 112.79400000000004 219.272 72.15600000000005 178.63299999999998 72.15600000000005 128.49599999999998" stroke-linecap="round" />
</g>
		<g transform="matrix(1.4394821947768692 0 0 -1.439482194776869 25.223326757977702 25.22404649907503)"  >
<path style="stroke: none; stroke-width: 1; stroke-dasharray: none; stroke-linecap: butt; stroke-dashoffset: 0; stroke-linejoin: miter; stroke-miterlimit: 4; fill: rgb(236,29,69); fill-rule: nonzero; opacity: 1;"  paint-order="stroke"  transform=" translate(-180.4545, -110.97500000000001)" d="M 215.768 165.519 C 223.348 154.73600000000002 227.495 141.933 227.495 128.496 L 227.495 128.496 C 227.495 98.24600000000001 206.559 72.863 178.428 65.894 L 178.428 65.894 C 175.904 59.815000000000005 169.923 55.531000000000006 162.926 55.531000000000006 L 162.926 55.531000000000006 C 153.66199999999998 55.531000000000006 146.146 63.04800000000001 146.146 72.322 L 146.146 72.322 C 146.146 81.592 153.66199999999998 89.107 162.926 89.107 L 162.926 89.107 C 168.30599999999998 89.107 173.03699999999998 86.535 176.112 82.603 L 176.112 82.603 C 196.06 88.34299999999999 210.715 106.72399999999999 210.715 128.49599999999998 L 210.715 128.49599999999998 C 210.715 137.426 208.229 145.981 203.663 153.415 L 203.663 153.415 L 107.201 56.947 C 122.594 44.941 141.897 37.724000000000004 162.926 37.724000000000004 L 162.926 37.724000000000004 C 213.063 37.724000000000004 253.70799999999997 78.363 253.70799999999997 128.496 L 253.70799999999997 128.496 C 253.70799999999997 149.531 246.48799999999997 168.84 234.48099999999997 184.226 L 234.48099999999997 184.226 z" stroke-linecap="round" />
</g>
		<g transform="matrix(1.4394821947768692 0 0 -1.439482194776869 -0.004318446584363755 -80.8607530682985)"  >
<path style="stroke: none; stroke-width: 1; stroke-dasharray: none; stroke-linecap: butt; stroke-dashoffset: 0; stroke-linejoin: miter; stroke-miterlimit: 4; fill: rgb(66,115,185); fill-rule: nonzero; opacity: 1;"  paint-order="stroke"  transform=" translate(-162.92899999999997, -184.6715)" d="M 156.481 184.675 C 156.481 181.113 159.36499999999998 178.223 162.926 178.223 L 162.926 178.223 C 166.487 178.223 169.37699999999998 181.113 169.37699999999998 184.675 L 169.37699999999998 184.675 C 169.37699999999998 188.23600000000002 166.487 191.12 162.926 191.12 L 162.926 191.12 C 159.36499999999998 191.12 156.481 188.23600000000002 156.481 184.675" stroke-linecap="round" />
</g>
		<g transform="matrix(1.4394821947768692 0 0 -1.439482194776869 -0.004318446584363755 80.22306245601226)"  >
<path style="stroke: none; stroke-width: 1; stroke-dasharray: none; stroke-linecap: butt; stroke-dashoffset: 0; stroke-linejoin: miter; stroke-miterlimit: 4; fill: rgb(199,15,46); fill-rule: nonzero; opacity: 1;"  paint-order="stroke"  transform=" translate(-162.92899999999997, -72.7675)" d="M 156.481 72.765 C 156.481 69.203 159.36499999999998 66.319 162.926 66.319 L 162.926 66.319 C 166.487 66.319 169.37699999999998 69.203 169.37699999999998 72.765 L 169.37699999999998 72.765 C 169.37699999999998 76.326 166.487 79.216 162.926 79.216 L 162.926 79.216 C 159.36499999999998 79.216 156.481 76.326 156.481 72.765" stroke-linecap="round" />
</g>
</g>
</g>
</svg>