<?xml version="1.0" encoding="UTF-8" standalone="no" ?>
<!DOCTYPE svg PUBLIC "-//W3C//DTD SVG 1.1//EN" "http://www.w3.org/Graphics/SVG/1.1/DTD/svg11.dtd">
<svg xmlns="http://www.w3.org/2000/svg" xmlns:xlink="http://www.w3.org/1999/xlink" version="1.1" width="1280" height="1024" viewBox="0 0 1280 1024" xml:space="preserve">
<desc>Created with Fabric.js 5.3.0</desc>
<defs>
</defs>
<g transform="matrix(1 0 0 1 640 512)" id="background-logo"  >
<rect style="stroke: none; stroke-width: 0; stroke-dasharray: none; stroke-linecap: butt; stroke-dashoffset: 0; stroke-linejoin: miter; stroke-miterlimit: 4; fill: rgb(255,255,255); fill-rule: nonzero; opacity: 1;"  paint-order="stroke"  x="-640" y="-512" rx="0" ry="0" width="1280" height="1024" />
</g>
<g transform="matrix(1.9211538461538462 0 0 1.9211538461538462 634.2743447433595 619.9588823912205)" id="text-logo"  >
<g style=""  paint-order="stroke"   >
		<g transform="matrix(1 0 0 1 0 0)" id="text-logo-path-0"  >
<path style="stroke: none; stroke-width: 0; stroke-dasharray: none; stroke-linecap: butt; stroke-dashoffset: 0; stroke-linejoin: miter; stroke-miterlimit: 4; fill: rgb(66,115,185); fill-rule: nonzero; opacity: 1;"  paint-order="stroke"  transform=" translate(-129.825, 23.19)" d="M 12.4 -33.97 L 12.61 -33.97 L 21.78 -35.62 L 34.19 -37.79 L 34.19 -38.69 C 34.19 -42.93 30.74 -46.38 26.5 -46.38 L 7.68 -46.38 C 3.44 -46.38 0 -42.93 0 -38.69 L 0 -13.89 L 12.4 -16.06 L 21.84 -17.7 L 21.84 -12.35 L 12.4 -10.71 L 0 -8.53 L 0 0 L 34.19 0 L 34.19 -32.49 L 21.78 -30.32 L 12.4 -28.67 Z M 74.15 -46.38 L 64.34 -46.38 L 51.94 -46.38 L 41.02 -46.38 L 41.02 -40.55 L 41.02 -33.97 L 41.02 -27.93 L 51.94 -29.84 L 51.94 0.05 L 64.34 0.05 L 64.34 -32.01 L 75.21 -33.92 L 75.21 -33.92 L 75.21 -33.92 L 75.21 -46.32 L 74.09 -46.32 Z M 116.33 -18.5 L 103.93 -16.32 L 103.93 -12.4 L 94.5 -12.4 L 94.5 -46.38 L 82.1 -46.38 L 82.1 0 L 116.28 0 L 116.28 -18.5 Z M 145.01 -14.84 L 135.57 -12.61 L 135.57 -31.59 L 145.01 -33.81 Z M 123.22 -38.74 L 123.22 0 L 157.41 0 L 157.41 -38.74 C 157.41 -42.98 153.97 -46.43 149.72 -46.43 L 130.8 -46.43 C 126.56 -46.43 123.12 -42.98 123.12 -38.74 Z M 174.85 -33.97 L 196.63 -33.97 L 196.63 -38.69 C 196.63 -42.93 193.19 -46.38 188.94 -46.38 L 170.13 -46.38 C 165.89 -46.38 162.44 -42.93 162.44 -38.69 L 162.44 0 L 196.63 0 L 196.63 -30.32 L 177.23 -26.92 L 177.23 -15.53 L 184.23 -16.75 L 184.23 -12.4 L 174.79 -12.4 L 174.79 -33.97 Z M 214.07 -46.38 L 201.66 -46.38 L 201.66 0 L 214.07 0 Z M 259.65 -46.38 L 245.39 -46.38 L 239.35 -35.72 L 233.31 -46.38 L 219.05 -46.38 L 232.19 -23.16 L 219.05 0.05 L 233.31 0.05 L 239.35 -10.6 L 245.39 0.05 L 259.65 0.05 L 246.5 -23.11 L 259.65 -46.27 Z" stroke-linecap="round" />
</g>
</g>
</g>
<g transform="matrix(1.3488117830880575 0 0 1.3488117830880575 657.2350149356672 334.4573619507956)" id="logo-logo"  >
<g style=""  paint-order="stroke"   >
		<g transform="matrix(1.4394821947768692 0 0 -1.439482194776869 -25.224046499075087 -25.220447793588164)"  >
<path style="stroke: none; stroke-width: 1; stroke-dasharray: none; stroke-linecap: butt; stroke-dashoffset: 0; stroke-linejoin: miter; stroke-miterlimit: 4; fill: rgb(66,115,185); fill-rule: nonzero; opacity: 1;"  paint-order="stroke"  transform=" translate(-145.40900000000002, -146.01850000000002)" d="M 72.156 128.496 C 72.156 107.46700000000001 79.376 88.15700000000001 91.382 72.76500000000001 L 91.382 72.76500000000001 L 110.09100000000001 91.47900000000001 C 102.50900000000001 102.26100000000001 98.36300000000001 115.05900000000001 98.36300000000001 128.496 L 98.36300000000001 128.496 C 98.36300000000001 158.746 119.305 184.13400000000001 147.43 191.103 L 147.43 191.103 C 149.959 197.18300000000002 155.94 201.46 162.92600000000002 201.46 L 162.92600000000002 201.46 C 172.20100000000002 201.46 179.716 193.94400000000002 179.716 184.675 L 179.716 184.675 C 179.716 175.406 172.20100000000002 167.89000000000001 162.92600000000002 167.89000000000001 L 162.92600000000002 167.89000000000001 C 157.55100000000002 167.89000000000001 152.82100000000003 170.46200000000002 149.752 174.395 L 149.752 174.395 C 129.798 168.654 115.14200000000001 150.268 115.14200000000001 128.496 L 115.14200000000001 128.496 C 115.14200000000001 119.56500000000001 117.62800000000001 111.01700000000001 122.19400000000002 103.58300000000001 L 122.19400000000002 103.58300000000001 L 218.66200000000003 200.046 C 203.27000000000004 212.052 183.96100000000004 219.272 162.92600000000004 219.272 L 162.92600000000004 219.272 C 112.79400000000004 219.272 72.15600000000005 178.63299999999998 72.15600000000005 128.49599999999998" stroke-linecap="round" />
</g>
		<g transform="matrix(1.4394821947768692 0 0 -1.439482194776869 25.223326757977702 25.22404649907503)"  >
<path style="stroke: none; stroke-width: 1; stroke-dasharray: none; stroke-linecap: butt; stroke-dashoffset: 0; stroke-linejoin: miter; stroke-miterlimit: 4; fill: rgb(236,29,69); fill-rule: nonzero; opacity: 1;"  paint-order="stroke"  transform=" translate(-180.4545, -110.97500000000001)" d="M 215.768 165.519 C 223.348 154.73600000000002 227.495 141.933 227.495 128.496 L 227.495 128.496 C 227.495 98.24600000000001 206.559 72.863 178.428 65.894 L 178.428 65.894 C 175.904 59.815000000000005 169.923 55.531000000000006 162.926 55.531000000000006 L 162.926 55.531000000000006 C 153.66199999999998 55.531000000000006 146.146 63.04800000000001 146.146 72.322 L 146.146 72.322 C 146.146 81.592 153.66199999999998 89.107 162.926 89.107 L 162.926 89.107 C 168.30599999999998 89.107 173.03699999999998 86.535 176.112 82.603 L 176.112 82.603 C 196.06 88.34299999999999 210.715 106.72399999999999 210.715 128.49599999999998 L 210.715 128.49599999999998 C 210.715 137.426 208.229 145.981 203.663 153.415 L 203.663 153.415 L 107.201 56.947 C 122.594 44.941 141.897 37.724000000000004 162.926 37.724000000000004 L 162.926 37.724000000000004 C 213.063 37.724000000000004 253.70799999999997 78.363 253.70799999999997 128.496 L 253.70799999999997 128.496 C 253.70799999999997 149.531 246.48799999999997 168.84 234.48099999999997 184.226 L 234.48099999999997 184.226 z" stroke-linecap="round" />
</g>
		<g transform="matrix(1.4394821947768692 0 0 -1.439482194776869 -0.004318446584363755 -80.8607530682985)"  >
<path style="stroke: none; stroke-width: 1; stroke-dasharray: none; stroke-linecap: butt; stroke-dashoffset: 0; stroke-linejoin: miter; stroke-miterlimit: 4; fill: rgb(66,115,185); fill-rule: nonzero; opacity: 1;"  paint-order="stroke"  transform=" translate(-162.92899999999997, -184.6715)" d="M 156.481 184.675 C 156.481 181.113 159.36499999999998 178.223 162.926 178.223 L 162.926 178.223 C 166.487 178.223 169.37699999999998 181.113 169.37699999999998 184.675 L 169.37699999999998 184.675 C 169.37699999999998 188.23600000000002 166.487 191.12 162.926 191.12 L 162.926 191.12 C 159.36499999999998 191.12 156.481 188.23600000000002 156.481 184.675" stroke-linecap="round" />
</g>
		<g transform="matrix(1.4394821947768692 0 0 -1.439482194776869 -0.004318446584363755 80.22306245601226)"  >
<path style="stroke: none; stroke-width: 1; stroke-dasharray: none; stroke-linecap: butt; stroke-dashoffset: 0; stroke-linejoin: miter; stroke-miterlimit: 4; fill: rgb(199,15,46); fill-rule: nonzero; opacity: 1;"  paint-order="stroke"  transform=" translate(-162.92899999999997, -72.7675)" d="M 156.481 72.765 C 156.481 69.203 159.36499999999998 66.319 162.926 66.319 L 162.926 66.319 C 166.487 66.319 169.37699999999998 69.203 169.37699999999998 72.765 L 169.37699999999998 72.765 C 169.37699999999998 76.326 166.487 79.216 162.926 79.216 L 162.926 79.216 C 159.36499999999998 79.216 156.481 76.326 156.481 72.765" stroke-linecap="round" />
</g>
</g>
</g>
</svg>